<svg xmlns="http://www.w3.org/2000/svg" viewBox="0 0 32 32">
  <defs>
    <linearGradient id="bgGrad" x1="0%" y1="0%" x2="100%" y2="100%">
      <stop offset="0%" style="stop-color:#2563EB"/>
      <stop offset="100%" style="stop-color:#0D9488"/>
    </linearGradient>
    <linearGradient id="bookGrad" x1="0%" y1="0%" x2="100%" y2="100%">
      <stop offset="0%" style="stop-color:#FFFFFF"/>
      <stop offset="100%" style="stop-color:#E0F2FE"/>
    </linearGradient>
  </defs>
  <!-- Background rounded square -->
  <rect x="1" y="1" width="30" height="30" rx="7" fill="url(#bgGrad)"/>
  <!-- Open book icon -->
  <path d="M7 9c0-1 1-2 2.5-2h2.5v16H9.5C8 23 7 22 7 21V9z" fill="url(#bookGrad)" opacity="0.9"/>
  <path d="M25 9c0-1-1-2-2.5-2H20v16h2.5c1.5 0 2.5-1 2.5-2V9z" fill="url(#bookGrad)" opacity="0.9"/>
  <!-- Book spine -->
  <line x1="16" y1="7" x2="16" y2="23" stroke="white" stroke-width="1.5" opacity="0.6"/>
  <!-- Sparkle / scan lines -->
  <circle cx="22" cy="11" r="1.2" fill="#FCD34D"/>
  <circle cx="24" cy="14" r="0.8" fill="#FDE68A"/>
  <line x1="8" y1="12" x2="12" y2="12" stroke="white" stroke-width="0.8" opacity="0.5" stroke-linecap="round"/>
  <line x1="8.5" y1="14.5" x2="11.5" y2="14.5" stroke="white" stroke-width="0.8" opacity="0.4" stroke-linecap="round"/>
</svg>
